<svg width="24" height="24" viewBox="0 0 24 24" fill="none" xmlns="http://www.w3.org/2000/svg">
<path d="M12.8957 21.9675C12.365 21.9691 11.8557 21.758 11.4817 21.3815L3.64467 13.5465C3.23114 13.1344 3.01914 12.5616 3.06467 11.9795L3.56467 5.41353C3.63609 4.42521 4.42409 3.64019 5.41267 3.57253L11.9787 3.07253C12.0307 3.06152 12.0817 3.06152 12.1337 3.06152C12.6633 3.06089 13.1713 3.27185 13.5447 3.64753L21.3817 11.4815C21.7569 11.8566 21.9677 12.3655 21.9677 12.896C21.9677 13.4266 21.7569 13.9354 21.3817 14.3105L14.3097 21.3815C13.9355 21.7578 13.4263 21.9689 12.8957 21.9675ZM8.65267 6.65353C7.74749 6.65379 6.95533 7.26196 6.72127 8.13635C6.4872 9.01075 6.86959 9.93334 7.65358 10.3858C8.43758 10.8382 9.42771 10.7077 10.0677 10.0675L10.0747 10.0615L10.0817 10.0545L10.0737 10.0615C10.6421 9.48808 10.81 8.62908 10.4992 7.88383C10.1885 7.13858 9.46011 6.65328 8.65267 6.65353Z" fill="#C4CAD3"/>
</svg>
