<svg width="19" height="19" viewBox="0 0 19 19" fill="none" xmlns="http://www.w3.org/2000/svg">
<path d="M9.89567 18.968C9.36495 18.9696 8.85571 18.7585 8.48167 18.382L0.644669 10.547C0.231142 10.1349 0.0191424 9.56209 0.0646694 8.98001L0.564669 2.41401C0.636088 1.42569 1.42409 0.640682 2.41267 0.573015L8.97867 0.0730146C9.03067 0.0620131 9.08167 0.0620131 9.13367 0.0620131C9.66333 0.0613789 10.1713 0.272342 10.5447 0.648015L18.3817 8.48201C18.7569 8.85711 18.9677 9.36594 18.9677 9.89651C18.9677 10.4271 18.7569 10.9359 18.3817 11.311L11.3097 18.382C10.9355 18.7583 10.4263 18.9693 9.89567 18.968ZM5.65267 3.65401C4.74749 3.65427 3.95533 4.26245 3.72127 5.13684C3.4872 6.01123 3.86959 6.93383 4.65358 7.38626C5.43758 7.8387 6.42771 7.70817 7.06767 7.06801L7.07467 7.06201L7.08167 7.05501L7.07367 7.06201C7.64211 6.48857 7.80997 5.62957 7.49923 4.88432C7.18849 4.13907 6.46011 3.65377 5.65267 3.65401Z" fill="#C4CAD3"/>
</svg>
