<svg width="16" height="16" viewBox="0 0 16 16" fill="none" xmlns="http://www.w3.org/2000/svg">
<path opacity="0.4" d="M7.81896 15.8631C5.99253 14.6756 4.29469 13.2754 2.7565 11.6881C1.6706 10.5547 0.841281 9.17092 0.331923 7.64233C-0.578182 4.66125 0.481237 1.2543 3.43908 0.24286C5.00029 -0.273237 6.69823 0.0435827 8.00383 1.0946C9.3099 0.0447581 11.0073 -0.271959 12.5686 0.24286C15.5264 1.2543 16.593 4.66125 15.6828 7.64233C15.1776 9.16948 14.3532 10.5532 13.2725 11.6881C11.7329 13.2737 10.0352 14.6737 8.21003 15.8631L8.01094 16L7.81896 15.8631Z" fill="#FF009B"/>
<path d="M8.00872 15.9997L7.82079 15.8628C5.9921 14.6754 4.2919 13.2752 2.75121 11.6877C1.66016 10.556 0.825907 9.17203 0.312415 7.64199C-0.59058 4.66091 0.46884 1.25396 3.42668 0.242527C4.98789 -0.27357 6.70823 0.0434921 8.00872 1.10331V15.9997Z" fill="#FF009B"/>
<path d="M12.9836 5.89414C12.8229 5.88324 12.6732 5.7987 12.5697 5.66032C12.4661 5.52193 12.4178 5.34186 12.436 5.16229C12.4533 4.57083 12.1336 4.03248 11.6406 3.82301C11.328 3.73318 11.1386 3.37678 11.2168 3.0253C11.2911 2.67948 11.5987 2.46445 11.9079 2.54229C11.9469 2.5491 11.9845 2.56399 12.0187 2.5862C13.0073 2.98664 13.6473 4.06439 13.5964 5.24279C13.5948 5.4214 13.5286 5.59161 13.4131 5.71442C13.2975 5.83722 13.1425 5.90208 12.9836 5.89414Z" fill="#FF009B"/>
</svg>
