<svg width="8" height="12" viewBox="0 0 8 12" fill="none" xmlns="http://www.w3.org/2000/svg">
<g opacity="0.4">
<path fill-rule="evenodd" clip-rule="evenodd" d="M2.01807 0.551042C3.26656 -0.195721 4.80116 -0.182669 6.03793 0.585232C7.26255 1.36877 8.00684 2.76716 7.99991 4.27144C7.9714 5.76585 7.17331 7.17059 6.1757 8.25652C5.59991 8.88612 4.95578 9.44284 4.25648 9.91532C4.18446 9.95819 4.10557 9.98689 4.02371 10C3.94491 9.99655 3.86818 9.97258 3.80043 9.93026C2.73282 9.22033 1.79619 8.31414 1.03562 7.25527C0.399194 6.37139 0.0376204 5.30353 6.63847e-07 4.19672C-0.000825529 2.68956 0.769581 1.2978 2.01807 0.551042ZM2.73952 4.82046C2.94953 5.35343 3.44525 5.70108 3.9952 5.70109C4.35549 5.70375 4.70182 5.55519 4.95703 5.28852C5.21225 5.02184 5.35513 4.6592 5.35386 4.2814C5.35578 3.70473 5.02598 3.18371 4.51844 2.96163C4.0109 2.73955 3.42574 2.86021 3.03618 3.26726C2.64662 3.67432 2.52951 4.28749 2.73952 4.82046Z" fill="black"/>
<path opacity="0.4" d="M4 12C5.65685 12 7 11.7761 7 11.5C7 11.2239 5.65685 11 4 11C2.34315 11 1 11.2239 1 11.5C1 11.7761 2.34315 12 4 12Z" fill="black"/>
</g>
</svg>
