<svg width="16" height="16" viewBox="0 0 16 16" fill="none" xmlns="http://www.w3.org/2000/svg">
<path opacity="0.4" d="M8.00356 0C3.5861 -1.74557e-06 0.00394223 3.5798 1.55988e-05 7.99827C-0.00253403 9.28664 0.307507 10.5564 0.903527 11.6985C0.960442 11.8053 1.01024 11.912 1.06716 12.0116C1.19477 12.2576 1.22033 12.5439 1.1383 12.8086C0.910048 13.4176 0.719966 14.0403 0.569157 14.673C0.569157 14.9861 0.661642 15.1711 0.996013 15.1711C1.60366 15.0347 2.20238 14.8613 2.78881 14.6516C3.04361 14.5851 3.31307 14.6026 3.55715 14.7014C3.77769 14.8153 3.97689 14.979 4.19743 15.0786H4.26858C6.7489 16.3844 9.73145 16.2973 12.1313 14.8489C14.5312 13.4005 15.9987 10.8018 16 7.99827C15.9961 3.58257 12.4182 0.00392332 8.00356 0Z" fill="#4B41F1"/>
<path d="M4.20877 9.22809C3.65553 9.22809 3.20703 8.77959 3.20703 8.22635C3.20703 7.6731 3.65553 7.22461 4.20877 7.22461C4.76202 7.22461 5.21051 7.6731 5.21051 8.22635C5.21051 8.77959 4.76202 9.22809 4.20877 9.22809Z" fill="#4B41F1"/>
<path d="M7.82598 9.22812C7.55974 9.22999 7.30385 9.12505 7.11558 8.93678C6.92731 8.74851 6.82237 8.49262 6.82424 8.22638C6.82424 7.82121 7.06831 7.45594 7.44263 7.30089C7.81696 7.14584 8.24782 7.23155 8.53432 7.51804C8.82081 7.80454 8.90652 8.2354 8.75147 8.60973C8.59642 8.98405 8.23115 9.22812 7.82598 9.22812Z" fill="#4B41F1"/>
<path d="M11.4353 9.22809C10.8821 9.22809 10.4336 8.77959 10.4336 8.22635C10.4336 7.6731 10.8821 7.22461 11.4353 7.22461C11.9886 7.22461 12.4371 7.6731 12.4371 8.22635C12.4371 8.77959 11.9886 9.22809 11.4353 9.22809Z" fill="#4B41F1"/>
</svg>
